<?xml version="1.0" encoding="UTF-8"?>
<svg version="1.1" xmlns="http://www.w3.org/2000/svg" width="774" height="742">
<path d="M0 0 C1.19520264 0.88969482 1.19520264 0.88969482 2.41455078 1.79736328 C12.2264536 9.1229259 21.90728522 16.55705799 31.171875 24.56640625 C33.86861108 26.8869402 36.60853238 29.13836755 39.375 31.375 C49.38986402 39.53580028 59.07406415 48.08603675 68.59765625 56.8125 C70.66680552 58.6966034 72.75853926 60.54454747 74.875 62.375 C82.59068277 69.08843944 90.14537525 76.02161045 97.29931641 83.33178711 C98.94702236 84.94803385 100.65167718 86.43235968 102.4140625 87.921875 C107.81811344 92.6251142 112.84664488 97.69685735 117.90014648 102.76977539 C119.5592732 104.43426277 121.22368051 106.09333447 122.88867188 107.75195312 C127.97054092 112.83097588 132.95998488 117.94308681 137.62866211 123.41040039 C139.3246925 125.37637046 141.1326674 127.19705818 143 129 C146.19261312 132.1498003 149.17161279 135.41219489 152.09375 138.8125 C154.30945648 141.35511399 156.59098592 143.83110198 158.875 146.3125 C162.96880209 150.80148057 166.85469667 155.41243476 170.66796875 160.140625 C172.70448606 162.6376613 174.78257977 165.09153948 176.8840332 167.53393555 C183.30532052 175.01338674 189.30227238 182.7816747 195.23046875 190.65527344 C197.09295977 193.12317683 198.96781702 195.58136474 200.84375 198.0390625 C227.28717927 232.79658307 227.28717927 232.79658307 225 253 C220.94729348 270.42663805 204.08296501 287.42393448 193 301 C192.31808594 301.84433594 191.63617187 302.68867188 190.93359375 303.55859375 C187.64105706 307.61683665 184.31981137 311.64395099 180.90234375 315.59765625 C180.36963867 316.21415039 179.83693359 316.83064453 179.28808594 317.46582031 C178.24903728 318.66462508 177.20689224 319.86075569 176.16113281 321.05371094 C173.95092319 323.60054567 171.96160283 326.05935562 170.125 328.8984375 C167.24733731 333.09855547 163.82723641 336.64109977 160.3125 340.3125 C159.59715088 341.066521 158.88180176 341.82054199 158.14477539 342.59741211 C153.86835534 347.09112106 149.55161802 351.5368088 145.08984375 355.84765625 C143.32467959 357.66561037 141.6936644 359.51863664 140.05078125 361.44482422 C135.30729509 366.87776857 130.20044609 371.94407898 125.09765625 377.03515625 C124.05050864 378.08297946 123.00350934 379.1309509 121.95664978 380.17906189 C119.77390674 382.36326988 117.58938975 384.54568332 115.40356445 386.72680664 C112.62213576 389.50253881 109.84522224 392.28273782 107.06963444 395.06430912 C104.91198979 397.22559203 102.75193853 399.38445714 100.59118462 401.54263115 C99.5671423 402.56601321 98.54382326 403.59011961 97.52128792 404.6150074 C92.39336285 409.75214266 87.24374854 414.81296381 81.70384216 419.51023865 C79.88537141 421.10022597 78.19087605 422.77562815 76.5 424.5 C73.51127663 427.53594925 70.38293521 430.34508659 67.15625 433.125 C64.80037042 435.17359094 62.4949254 437.27203002 60.1875 439.375 C55.89093956 443.25302183 51.46497772 446.92898856 46.9609375 450.5625 C44.86874224 452.28483488 42.81965394 454.02101586 40.7890625 455.8125 C33.93954152 461.84393064 26.91931597 467.3109862 19.40136719 472.48828125 C14.46890935 475.90323167 9.76714689 479.51394654 5.125 483.3125 C-8.7100695 494.58605558 -22.50879229 503.71054498 -41 502 C-54.29081758 499.00867044 -64.84121612 489.75853315 -75.21044922 481.43066406 C-77.51119608 479.5913221 -79.83274571 477.7794774 -82.15527344 475.96777344 C-94.4451497 466.37175989 -106.52354154 456.51683896 -118.37597656 446.38574219 C-120.06714221 444.94270908 -121.76374619 443.50625183 -123.4609375 442.0703125 C-129.90027565 436.60630805 -136.22215616 431.04503253 -142.38671875 425.27172852 C-145.11790823 422.71664311 -147.88518626 420.21812702 -150.71191406 417.76879883 C-164.21666182 405.96989468 -176.90175745 393.26018775 -189.56054688 380.56982422 C-192.15379284 377.97114686 -194.75243948 375.37795419 -197.3515625 372.78515625 C-199.02896707 371.10709188 -200.70606194 369.42871787 -202.3828125 367.75 C-203.14643097 366.98840576 -203.91004944 366.22681152 -204.69680786 365.44213867 C-208.79165877 361.32949419 -212.7143125 357.12657054 -216.50320435 352.7303772 C-218.23602578 350.72714136 -220.03286335 348.7971953 -221.8671875 346.88671875 C-222.52050049 346.20182373 -223.17381348 345.51692871 -223.84692383 344.8112793 C-224.51618896 344.11043213 -225.1854541 343.40958496 -225.875 342.6875 C-231.12373044 337.15554094 -236.1273436 331.57202223 -240.8671875 325.59765625 C-243.27716499 322.66242725 -245.8415644 319.89402787 -248.4375 317.125 C-253.593804 311.59483042 -258.17440887 305.73633487 -262.71435547 299.69726562 C-264.96243634 296.72942319 -267.26189935 293.80220162 -269.5625 290.875 C-270.02309814 290.28678467 -270.48369629 289.69856934 -270.95825195 289.0925293 C-273.79873653 285.4788772 -276.72113453 281.94922819 -279.6875 278.4375 C-288.05786857 268.20704952 -297.15756456 255.29260327 -296.37890625 241.40234375 C-293.96839695 226.11921777 -285.52545152 215.3924845 -276.04296875 203.76171875 C-273.28594241 200.3753054 -270.63308695 196.92052094 -268 193.4375 C-263.98266786 188.15358779 -259.7360327 183.09987511 -255.38623047 178.08740234 C-252.39045417 174.63443158 -249.47813493 171.1355354 -246.625 167.5625 C-241.77463168 161.57919894 -236.49145802 156.02622487 -231.2109375 150.42578125 C-228.92034812 147.99341837 -226.67659232 145.53567481 -224.5 143 C-215.84094373 132.97714236 -206.60683512 123.45522053 -197.15039062 114.18725586 C-194.31037881 111.38825082 -191.60328128 108.57496171 -189.0625 105.5 C-186.34935839 102.27006952 -183.33890278 99.60566244 -180.1328125 96.875 C-176.23199785 93.4457124 -172.63978151 89.70189382 -169 86 C-164.09731076 81.01364712 -159.16307486 76.16692977 -153.85791016 71.60839844 C-151.0634838 69.18925509 -148.38268321 66.65338311 -145.6875 64.125 C-140.84130801 59.61137599 -135.85012954 55.36156986 -130.68359375 51.21484375 C-127.84761459 48.87423213 -125.14147155 46.4290979 -122.4375 43.9375 C-118.33316383 40.16892053 -114.13926132 36.60857354 -109.7578125 33.16796875 C-107.73895234 31.58090446 -105.73579724 29.9814259 -103.7421875 28.36328125 C-90.44069959 17.58632401 -76.75341077 7.30997393 -62.8125 -2.625 C-61.82564209 -3.33366211 -61.82564209 -3.33366211 -60.81884766 -4.05664062 C-38.76814156 -19.61131277 -20.99387118 -15.71622408 0 0 Z M-37 43 C-37.2587793 43.78681152 -37.51755859 44.57362305 -37.78417969 45.38427734 C-44.56823014 65.96644587 -51.53457561 86.48463306 -58.59498596 106.97351837 C-59.24107182 108.84908182 -59.8863497 110.72492355 -60.53161621 112.60076904 C-65.10780665 125.89831418 -69.70708488 139.18015951 -74.6519165 152.34616089 C-75.11764069 153.60204514 -75.11764069 153.60204514 -75.59277344 154.88330078 C-75.86587341 155.61026154 -76.13897339 156.33722229 -76.42034912 157.08621216 C-77.14493847 159.14525784 -77.14493847 159.14525784 -77 162 C-63.635 162.495 -63.635 162.495 -50 163 C-50.19335938 166.80917969 -50.38671875 170.61835938 -50.5859375 174.54296875 C-51.8373956 199.27626071 -53.07878607 224.00981805 -54.1875 248.75 C-54.25127838 250.15371353 -54.25127838 250.15371353 -54.31634521 251.58578491 C-54.43556955 254.21856325 -54.55225178 256.85144044 -54.66796875 259.484375 C-54.70219437 260.23699112 -54.73641998 260.98960724 -54.77168274 261.76502991 C-54.97583247 266.51452221 -55.02844873 271.24604987 -55 276 C-52.0539914 277.4730043 -49.41391588 277.12989305 -46.12890625 277.1328125 C-45.45077377 277.13376923 -44.7726413 277.13472595 -44.07395935 277.13571167 C-42.63906766 277.1363924 -41.20417289 277.13454554 -39.76928711 277.13037109 C-37.57463641 277.12502954 -35.38019113 277.13031534 -33.18554688 277.13671875 C-31.79166622 277.13605779 -30.39778568 277.13477625 -29.00390625 277.1328125 C-27.73361572 277.13168457 -26.4633252 277.13055664 -25.15454102 277.12939453 C-21.9725927 277.14479824 -21.9725927 277.14479824 -19 276 C-18.81540651 263.86416853 -19.37954784 251.7594335 -19.875 239.63671875 C-19.96490671 237.39086291 -20.05458394 235.14499787 -20.14404297 232.89912415 C-20.37849455 227.02852178 -20.61603498 221.15804844 -20.85424805 215.28759766 C-21.09742848 209.28100018 -21.33764716 203.2742843 -21.578125 197.26757812 C-22.04920648 185.51160142 -22.52382967 173.75577168 -23 162 C-13.1 162 -3.2 162 7 162 C5.04677269 155.4892423 3.04323423 149.16413688 0.65625 142.82421875 C-0.01086169 141.03354285 -0.67793334 139.24285203 -1.3449707 137.45214844 C-1.69564606 136.51431519 -2.04632141 135.57648193 -2.40762329 134.61022949 C-10.38246106 113.27299906 -18.11407645 91.85250568 -25.75390625 70.39331055 C-26.3353968 68.76304176 -26.3353968 68.76304176 -26.92863464 67.09983826 C-27.64889717 65.08008465 -28.36755422 63.05975739 -29.08418274 61.03871155 C-31.25001933 54.96642296 -33.56236271 48.96835873 -36 43 C-36.33 43 -36.66 43 -37 43 Z M-134.0625 188.3125 C-134.82127441 188.5717627 -135.58004883 188.83102539 -136.36181641 189.09814453 C-159.12279054 197.2123701 -184.89190524 209.17803045 -196.8125 231.375 C-199.29048862 238.9393863 -199.87868462 245.1347822 -196.46875 252.49609375 C-183.33253711 274.8905418 -152.39604277 283.61467588 -129 290 C-62.42972299 306.74892632 26.44741186 310.47742463 88 275 C97.84959422 268.8215091 106.60304001 261.50517997 110 250 C110.93999177 244.34936767 109.84701057 238.94385645 107 234 C99.10205326 223.61657105 89.50681375 216.87170122 78 211 C78 210.34 78 209.68 78 209 C81.3 208.01 84.6 207.02 88 206 C88 205.34 88 204.68 88 204 C87.05084717 203.79431396 86.10169434 203.58862793 85.1237793 203.37670898 C67.64983109 199.58144914 50.22831571 195.70811596 32.9519043 191.08374023 C31.92363525 190.80860596 30.89536621 190.53347168 29.8359375 190.25 C28.94438965 190.00765625 28.0528418 189.7653125 27.13427734 189.515625 C25.04193495 188.92172127 25.04193495 188.92172127 23 189 C23.17378174 189.52134521 23.34756348 190.04269043 23.52661133 190.57983398 C26.68440755 200.05322266 29.84220378 209.52661133 33 219 C39.6648365 217.71946825 39.6648365 217.71946825 46.2578125 216.12109375 C56.25404461 213.7377959 63.43676287 217.07288154 72 222 C78.85618982 226.2249973 84.39323817 231.27591096 86.625 239.2265625 C87.72943922 245.92222526 86.09950429 251.05429028 82.20703125 256.515625 C79.92238742 259.08736567 77.79335012 260.69623841 74.875 262.5 C74.00617188 263.0465625 73.13734375 263.593125 72.2421875 264.15625 C64.38416394 268.62490918 56.70494415 272.03134651 48 274.5 C46.97108643 274.79479248 45.94217285 275.08958496 44.88208008 275.39331055 C37.21257329 277.52453236 29.49852491 279.28476227 21.6875 280.8125 C20.70072266 281.00714844 19.71394531 281.20179688 18.69726562 281.40234375 C2.34477889 284.42782012 -13.96052839 285.38187842 -30.5625 285.3125 C-31.47587128 285.31067719 -32.38924255 285.30885437 -33.33029175 285.30697632 C-48.4052302 285.25657603 -63.10778053 284.51226546 -78 282 C-79.04349609 281.82839355 -80.08699219 281.65678711 -81.16210938 281.47998047 C-129.40198733 273.31597209 -129.40198733 273.31597209 -140.8671875 257.9375 C-143.13398232 254.06049921 -144.74299706 250.53136765 -145 246 C-141.98330563 235.13341276 -133.37369402 227.53433168 -124 222 C-114.4513423 216.99527458 -104.27015728 214.17558755 -93.91162109 211.359375 C-92.90309082 211.0809375 -91.89456055 210.8025 -90.85546875 210.515625 C-89.94434326 210.27102539 -89.03321777 210.02642578 -88.09448242 209.77441406 C-85.81689271 209.20364284 -85.81689271 209.20364284 -85 207 C-86.12643921 206.31224487 -86.12643921 206.31224487 -87.27563477 205.6105957 C-90.09299795 203.88871684 -92.908898 202.16449238 -95.72387695 200.4387207 C-96.93652546 199.69593122 -98.14972994 198.95404854 -99.36352539 198.21313477 C-101.12016727 197.14063583 -102.87477487 196.06488035 -104.62890625 194.98828125 C-105.74668457 194.30330566 -106.86446289 193.61833008 -108.01611328 192.91259766 C-110.4246263 191.36880032 -112.61735361 189.76994888 -114.83984375 187.98046875 C-121.16336717 184.01751897 -127.46375671 186.02103831 -134.0625 188.3125 Z M-56 308 C-56.50460047 319.4504145 -57.00888606 330.90084282 -57.51279354 342.35128784 C-57.74690604 347.67088464 -57.9811182 352.99047701 -58.21557617 358.31005859 C-59.64462569 390.65345396 -59.64462569 390.65345396 -61 423 C-53.17196982 426.91401509 -40.71799186 425.15396514 -32.125 425.125 C-30.95453125 425.12886719 -29.7840625 425.13273437 -28.578125 425.13671875 C-22.94865392 425.13033613 -17.54218849 425.01795299 -12 424 C-11.83434472 413.25346706 -12.34826046 402.54775902 -12.83984375 391.81640625 C-12.92730432 389.86930616 -13.01458639 387.92219805 -13.10169983 385.9750824 C-13.2841061 381.91128733 -13.46837759 377.84758254 -13.65405273 373.78393555 C-13.89039919 368.60891385 -14.12250923 363.43371281 -14.3532629 358.25843906 C-14.53273352 354.24233457 -14.71425537 350.22632477 -14.89639473 346.2103405 C-14.98267217 344.30363474 -15.06838327 342.39690327 -15.15348625 340.49014473 C-14.4157948 323.73526956 -14.4157948 323.73526956 -18 309 C-20.80976518 308.83982834 -23.59773596 308.74049466 -26.41015625 308.68359375 C-27.25219101 308.66281265 -28.09422577 308.64203156 -28.96177673 308.62062073 C-31.66193179 308.55503188 -34.36218717 308.49619724 -37.0625 308.4375 C-38.88868241 308.39432363 -40.71485454 308.35070964 -42.54101562 308.30664062 C-47.02723992 308.19934106 -51.5135655 308.09810034 -56 308 Z " fill="#055C99" transform="translate(412,128)"/>
<path d="M0 0 C6.26701026 3.47988231 9.83312028 7.75864864 13.8125 13.625 C14.64867219 14.8275658 15.48598131 16.0293416 16.32421875 17.23046875 C18.195596 19.92728426 20.05186649 22.63379945 21.8984375 25.34765625 C30.21547753 37.56593059 38.83001799 49.31989847 48.24853516 60.71386719 C50.73415011 63.75123744 53.14904755 66.84269728 55.5625 69.9375 C60.22647414 75.90551563 64.99676886 81.77856381 69.8125 87.625 C71.27094341 89.41657706 72.72927517 91.20824502 74.1875 93 C78.84719725 98.69339092 83.58793898 104.31499935 88.35791016 109.91601562 C89.33789302 111.06738858 90.31671145 112.21975354 91.29443359 113.37304688 C100.13472234 123.80049727 109.101536 134.05874153 118.86230469 143.64208984 C120.67883009 145.48908776 122.36746686 147.38807215 124.046875 149.359375 C127.77705487 153.65215237 131.75421702 157.6444619 135.8125 161.625 C140.43075953 166.15478713 144.8444728 170.75459484 149.06640625 175.65625 C151.99862958 178.96238101 155.15660669 182.03417665 158.3125 185.125 C162.11703828 188.85109419 165.82705669 192.58655485 169.29296875 196.6328125 C172.81632083 200.71748535 176.65011688 204.36020877 180.625 208 C185.27098953 212.29946544 189.86729075 216.61776458 194.3125 221.125 C197.5914334 224.44193428 200.95177333 227.56106084 204.49609375 230.58984375 C206.98109587 232.77312554 209.39116655 235.02415383 211.80224609 237.28833008 C217.40675259 242.55128146 223.0961895 247.57499189 229.1015625 252.3828125 C232.10156152 254.86407971 234.96377036 257.47391496 237.8125 260.125 C243.28529559 265.20958538 248.98760327 269.94653736 254.8125 274.625 C256.56364918 276.06109985 258.31363183 277.49862323 260.0625 278.9375 C261.97782857 280.50163997 263.89458952 282.06402699 265.8125 283.625 C266.34794434 284.06150879 266.88338867 284.49801758 267.43505859 284.94775391 C277.50497404 293.13949287 287.83261094 300.95639321 298.24511719 308.70605469 C300.74771733 310.57657933 303.23892571 312.46119745 305.7265625 314.3515625 C314.67582716 321.14096771 323.72553368 327.75793564 332.9375 334.1875 C333.87311768 334.84226318 334.80873535 335.49702637 335.77270508 336.17163086 C340.95598212 339.76240236 346.19808882 343.12217026 351.67773438 346.24438477 C358.06582255 350.37574783 362.32371282 357.43409536 364.3984375 364.66796875 C365.87583997 371.65078609 364.30317304 377.55468122 360.8125 383.625 C355.72000012 389.91923467 348.64794158 393.57274891 341.72875977 397.50537109 C332.54638685 402.7979133 324.23109185 409.21224057 315.8125 415.625 C314.06664941 416.94563402 312.32055145 418.26594106 310.57421875 419.5859375 C295.46916261 431.02911983 280.41113003 442.53943617 265.8125 454.625 C264.02125392 456.0838499 262.22957644 457.54217024 260.4375 459 C254.74572512 463.65837462 249.12542823 468.39753505 243.52587891 473.16601562 C242.36738653 474.15250044 241.2081873 475.13815565 240.04833984 476.12304688 C233.00851215 482.10276386 226.06204653 488.15516475 219.25390625 494.3984375 C217.15095167 496.31633207 215.02580844 498.19876045 212.875 500.0625 C207.95747375 504.33904523 203.17901165 508.7667681 198.38574219 513.18115234 C196.83780636 514.60177502 195.28340186 516.01492651 193.7265625 517.42578125 C188.11649345 522.51866084 182.64388714 527.70619762 177.359375 533.140625 C175.38352589 535.06798702 173.39580774 536.85521678 171.30078125 538.64453125 C165.92576157 543.30824368 160.93165754 548.35618632 155.91235352 553.39477539 C154.2532268 555.05926277 152.58881949 556.71833447 150.92382812 558.37695312 C145.87261421 563.42533728 140.91800407 568.50743226 136.27758789 573.94165039 C134.07689232 576.47019496 131.71100454 578.78293086 129.3125 581.125 C125.67476429 584.71421619 122.20380016 588.37829473 118.88671875 592.265625 C115.93615694 595.6218196 112.87049254 598.86682195 109.8125 602.125 C105.04701191 607.21202095 100.33748183 612.32152667 95.8125 617.625 C94.92603572 618.65777056 94.03928965 619.69029928 93.15234375 620.72265625 C91.09599779 623.11727264 89.04316532 625.51484739 86.9921875 627.9140625 C84.92279302 630.3332138 82.84472693 632.74438733 80.7578125 635.1484375 C75.2711627 641.48185284 69.95033088 647.90272594 64.81176758 654.5222168 C61.92953083 658.22898561 58.97052926 661.8516767 55.9375 665.4375 C50.27296603 672.18862696 44.9603123 679.19228567 39.64111328 686.21679688 C37.69425184 688.78072762 35.73684034 691.33633945 33.77734375 693.890625 C27.83308871 701.64719558 21.89468175 709.39645945 16.25 717.375 C3.05356743 736.00446628 3.05356743 736.00446628 -4.1875 739.625 C-13.63606587 740.34545315 -23.31560464 740.62207573 -30.91796875 734.15234375 C-34.3764716 730.3915553 -36.82540241 725.98835995 -39.38671875 721.59375 C-52.66929892 699.69622087 -69.06818778 679.51625607 -85.27270508 659.73901367 C-89.12878038 655.00403473 -92.81069769 650.1620453 -96.4375 645.25 C-101.02926622 639.04147782 -105.91683601 633.27433306 -111.1875 627.625 C-112.3599425 626.2967427 -113.52686217 624.96358459 -114.6875 623.625 C-117.32439636 620.59745233 -119.99766569 617.60562721 -122.6875 614.625 C-125.37733431 611.64437279 -128.05060364 608.65254767 -130.6875 605.625 C-138.049889 597.18927866 -145.62792083 588.96191288 -153.28515625 580.79443359 C-155.72769017 578.18744392 -158.16416159 575.575092 -160.59350586 572.95581055 C-169.20792305 563.68717654 -178.01817991 554.63728365 -186.97875977 545.70336914 C-189.15174335 543.53582358 -191.31922363 541.362875 -193.48632812 539.18945312 C-194.89551229 537.78092873 -196.30500606 536.372714 -197.71484375 534.96484375 C-198.34833237 534.3293309 -198.98182098 533.69381805 -199.63450623 533.03904724 C-203.45557832 529.2376667 -207.39363497 525.62631065 -211.48048401 522.11183167 C-213.47977356 520.37042618 -215.3462488 518.53201018 -217.1875 516.625 C-220.29463922 513.47579119 -223.51240304 510.54523033 -226.8671875 507.6640625 C-229.22797336 505.58943251 -231.5270235 503.46004128 -233.82373047 501.31518555 C-239.20623495 496.28937194 -244.69519262 491.51432654 -250.44140625 486.90234375 C-253.45071578 484.40671437 -256.32649881 481.78695109 -259.1875 479.125 C-263.68672305 474.9486877 -268.30500707 470.9798286 -273.0859375 467.12890625 C-276.17875156 464.63206265 -279.24258229 462.10308255 -282.30371094 459.56762695 C-289.88849065 453.29053881 -297.54420385 447.12117954 -305.31835938 441.08056641 C-307.34696477 439.5008191 -309.36897426 437.912855 -311.390625 436.32421875 C-322.16691588 427.87383142 -333.11376374 419.68092478 -344.1875 411.625 C-344.95094727 411.06925293 -345.71439453 410.51350586 -346.50097656 409.94091797 C-348.76967773 408.29143762 -351.0406142 406.64509071 -353.3125 405 C-354.04573486 404.46785889 -354.77896973 403.93571777 -355.53442383 403.38745117 C-359.26917335 400.68832266 -363.02875897 398.03987085 -366.84765625 395.4609375 C-375.67704643 389.46966635 -383.28817128 384.26929498 -387.6875 374.1875 C-388.70284608 366.95315915 -388.16608455 360.66298863 -383.85546875 354.6015625 C-377.2990935 346.83218105 -369.13774399 341.39515957 -360.77294922 335.77246094 C-352.52223557 330.22294042 -344.54760694 324.33550089 -336.57568359 318.39550781 C-334.17053375 316.61242187 -331.75352105 314.84675582 -329.33203125 313.0859375 C-320.33083949 306.5307119 -311.55036393 299.79225 -302.95703125 292.7109375 C-299.37538266 289.76220911 -295.72752852 286.90641032 -292.0625 284.0625 C-286.64977061 279.84824871 -281.41452925 275.45850492 -276.23046875 270.96679688 C-272.72527881 267.93133396 -269.17530781 264.9703697 -265.5625 262.0625 C-260.50653637 257.95964881 -255.72892172 253.60429125 -250.95703125 249.1796875 C-248.72831607 247.12386278 -246.47982081 245.10883043 -244.1875 243.125 C-239.28910408 238.87432586 -234.53533449 234.46626153 -229.76513672 230.07324219 C-228.20366855 228.63984244 -226.6361384 227.21340344 -225.06640625 225.7890625 C-219.74466868 220.95295878 -214.52073215 216.05849986 -209.515625 210.890625 C-207.64514709 209.07036126 -205.75340906 207.3893245 -203.76953125 205.69921875 C-198.05978649 200.74016285 -192.76820407 195.35493565 -187.43286133 190.00073242 C-185.62887915 188.19139067 -183.81961335 186.38745681 -182.00976562 184.58398438 C-176.70712686 179.28408311 -171.48188105 173.98422448 -166.61743164 168.27319336 C-163.62685418 164.82614053 -160.2943287 161.71755038 -157.03125 158.53125 C-154.20935439 155.71385901 -151.62171513 152.71323156 -149.01269531 149.69970703 C-146.03733978 146.31760814 -142.9174368 143.0751581 -139.8125 139.8125 C-134.77750796 134.48673147 -129.99276646 129.06871513 -125.42578125 123.33203125 C-122.79352317 120.14851493 -120.01057554 117.13874653 -117.1875 114.125 C-112.7677418 109.40007297 -108.58873041 104.55454912 -104.53515625 99.5078125 C-101.79174609 96.13903264 -98.96429036 92.85042473 -96.125 89.5625 C-87.7762802 79.8671283 -79.95735312 69.78680653 -72.1875 59.625 C-71.67493652 58.95484863 -71.16237305 58.28469727 -70.63427734 57.59423828 C-68.42635296 54.70725921 -66.21871934 51.8200584 -64.01171875 48.93237305 C-59.084091 42.48592608 -54.13824846 36.05370436 -49.1875 29.625 C-47.93930245 28.00278668 -46.69135537 26.38038685 -45.44458008 24.75708008 C-44.61022788 23.67383198 -43.77284595 22.59291037 -42.93237305 21.5144043 C-40.79698747 18.76641151 -38.73303583 15.9946513 -36.7578125 13.12890625 C-27.65090309 0.14275633 -15.47772535 -6.79699357 0 0 Z M-47.5 109.375 C-48.32395264 109.98770752 -49.14790527 110.60041504 -49.99682617 111.23168945 C-56.78360125 116.29082551 -63.51249909 121.41933891 -70.1875 126.625 C-71.33721491 127.51565685 -72.48695528 128.40628084 -73.63671875 129.296875 C-80.04682952 134.27986571 -86.34081584 139.37100173 -92.51049805 144.64916992 C-95.79211903 147.45607534 -99.1225316 150.18310727 -102.5 152.875 C-108.03198372 157.36872285 -113.19444839 162.22359277 -118.35473633 167.13378906 C-122.24206755 170.82966714 -126.20094498 174.41192123 -130.25170898 177.92773438 C-134.56346982 181.70820623 -138.70863538 185.67163243 -142.88916016 189.59570312 C-145.58278143 192.12308244 -148.28157984 194.64467408 -150.98608398 197.16040039 C-161.44960484 206.91848003 -171.64412265 216.92604991 -181.74804688 227.05517578 C-184.34129284 229.65385314 -186.93993948 232.24704581 -189.5390625 234.83984375 C-191.21646707 236.51790812 -192.89356194 238.19628213 -194.5703125 239.875 C-195.7157402 241.01739136 -195.7157402 241.01739136 -196.88430786 242.18286133 C-200.98154997 246.29790739 -204.90855248 250.50254299 -208.69967651 254.90136719 C-210.38733381 256.85650604 -212.12987292 258.75028402 -213.90625 260.625 C-214.84017578 261.615 -214.84017578 261.615 -215.79296875 262.625 C-217.05598958 263.95833333 -218.31901042 265.29166667 -219.58203125 266.625 C-223.89657231 271.19859218 -228.07544387 275.86891617 -232.1875 280.625 C-232.68121094 281.1912207 -233.17492187 281.75744141 -233.68359375 282.34082031 C-239.63247205 289.16573206 -245.42463091 296.08124974 -250.97167969 303.23730469 C-253.92611616 307.04369858 -256.95275887 310.77869293 -260.02685547 314.48901367 C-280.82406828 339.02895434 -280.82406828 339.02895434 -289.5 368.875 C-289.52513672 370.70804687 -289.52513672 370.70804687 -289.55078125 372.578125 C-289.06463104 381.49087882 -285.51024342 388.45257492 -280.375 395.5625 C-279.80458984 396.37243408 -279.23417969 397.18236816 -278.64648438 398.0168457 C-276.84280453 400.56476477 -275.01782863 403.09617312 -273.1875 405.625 C-272.60436035 406.43775391 -272.0212207 407.25050781 -271.42041016 408.08789062 C-263.82903093 418.65165707 -255.90352763 428.88788262 -247.60693359 438.90576172 C-245.61529971 441.31805718 -243.65431581 443.75495367 -241.6875 446.1875 C-233.11375306 456.64214206 -224.16687251 466.75561505 -214.94921875 476.64453125 C-212.50677815 479.26783136 -210.1240905 481.93955337 -207.75 484.625 C-203.66118 489.19792437 -199.35356862 493.52342279 -194.96704102 497.80859375 C-192.10957318 500.61936367 -189.40775984 503.49320486 -186.80078125 506.5390625 C-183.12936041 510.78490266 -179.12631744 514.57686413 -175 518.375 C-169.78182066 523.22591745 -164.62705342 528.11366238 -159.625 533.1875 C-155.99669268 536.85908733 -152.30021042 540.3774194 -148.37109375 543.7265625 C-145.46091902 546.25669652 -142.63946171 548.87760767 -139.8125 551.5 C-135.96159498 555.06942705 -132.09872231 558.6214621 -128.1875 562.125 C-124.27626443 565.62854978 -120.41392056 569.18111608 -116.5625 572.75 C-111.83705642 577.12217108 -107.0716163 581.42989296 -102.1875 585.625 C-101.1975 586.48222656 -100.2075 587.33945312 -99.1875 588.22265625 C-95.5374386 591.37640708 -91.8671838 594.50588235 -88.1875 597.625 C-87.52540527 598.18670898 -86.86331055 598.74841797 -86.18115234 599.32714844 C-48.91822495 632.35785913 -48.91822495 632.35785913 -3.1875 644.625 C0.74021729 643.74378138 4.18936471 642.36257018 7.8125 640.625 C8.63363281 640.24730469 9.45476562 639.86960937 10.30078125 639.48046875 C24.5703912 632.31318363 37.27730953 621.4317597 49.8125 611.625 C50.96333467 610.73280585 52.11438232 609.84088637 53.265625 608.94921875 C60.71715163 603.15895876 67.99075533 597.19252135 75.15185547 591.04736328 C76.86873967 589.57683 78.59198682 588.11403077 80.31640625 586.65234375 C86.97193068 580.99797974 93.50130186 575.23843343 99.8984375 569.29296875 C102.09895137 567.27828916 104.31751736 565.30517649 106.5690918 563.34912109 C121.800914 550.03290641 135.99441867 535.60094579 150.27905273 521.28881836 C153.29442279 518.26769965 156.31433448 515.25116656 159.33554935 512.2358942 C161.694114 509.88095964 164.05027177 507.52362849 166.40572929 505.16558647 C167.51842636 504.05222961 168.63184641 502.93959475 169.74604988 501.82774544 C175.16377191 496.41898334 180.52248882 491.00424924 185.48634338 485.16790771 C187.11819077 483.26934619 188.87218847 481.53502894 190.6875 479.8125 C194.53285775 476.01860975 197.89149885 471.94146019 201.2734375 467.734375 C204.14210277 464.1892459 207.13066391 460.75155258 210.125 457.3125 C210.95584106 456.35597534 210.95584106 456.35597534 211.8034668 455.38012695 C213.98405465 452.87091842 216.16584278 450.36283936 218.35693359 447.86279297 C251.3003993 411.94414471 251.3003993 411.94414471 266.140625 367.8046875 C264.85001715 355.29808289 257.98150321 345.48966024 250.8125 335.625 C250.28446777 334.89120117 249.75643555 334.15740234 249.21240234 333.40136719 C235.83596959 314.84885355 221.71652718 296.8813819 206.89770508 279.46191406 C203.98603306 276.03402421 201.13461044 272.56494063 198.3125 269.0625 C194.18208445 263.98460561 189.80418232 259.17936147 185.35546875 254.3828125 C183.36261761 252.22159452 181.41542215 250.04153031 179.5 247.8125 C176.02838787 243.81131991 172.42323299 239.93772095 168.8125 236.0625 C168.23072998 235.43690186 167.64895996 234.81130371 167.04956055 234.16674805 C164.1894666 231.10727158 161.29688135 228.09873934 158.3125 225.16015625 C155.95768814 222.82583799 153.74475093 220.42975991 151.58984375 217.91015625 C147.26314132 212.9003538 142.58473843 208.24722583 137.8972168 203.5793457 C136.37758332 202.0650742 134.86337483 200.5455257 133.34960938 199.02539062 C128.52932293 194.20220034 123.65238389 189.50333559 118.46850586 185.06713867 C115.55868752 182.53311288 112.94235431 179.72263577 110.28125 176.93359375 C108.24750496 175.0317847 106.25902255 173.44047324 104.01953125 171.8046875 C99.691119 168.61758535 95.86437407 165.03916703 92 161.3125 C86.68822837 156.26159074 81.3106675 151.42576349 75.57421875 146.85546875 C72.31782357 144.22548056 69.16227897 141.49165463 66 138.75 C59.71718459 133.33074007 53.27600823 128.15574857 46.70458984 123.09179688 C44.67368529 121.51738725 42.65905072 119.92343543 40.64453125 118.328125 C11.10675143 95.10123632 -15.4352745 85.33733492 -47.5 109.375 Z " fill="#085E9A" transform="translate(388.1875,2.375)"/>
<path d="M0 0 C5.15528818 3.81155392 7.98181416 9.71031749 9.18359375 15.90234375 C9.89679364 25.50311146 9.0950859 32.53319821 3.05859375 40.15234375 C-2.93076249 46.4647773 -8.62786561 48.12605666 -17.25390625 48.46484375 C-25.29553701 48.21530366 -30.93524256 46.42869957 -36.91015625 41 C-43.53268963 33.92963138 -44.34074089 27.18262508 -44.19140625 17.671875 C-43.48932111 10.61445669 -40.67115104 5.34350427 -35.56640625 0.46484375 C-24.73695761 -7.77393937 -11.25052663 -6.79870534 0 0 Z M-31.69140625 8.77734375 C-35.29511489 14.07691528 -36.36722016 18.51290242 -35.81640625 24.90234375 C-34.139656 31.7665401 -31.01638682 35.79326565 -25.06640625 39.71484375 C-19.50764089 41.74593109 -14.8207939 41.68978176 -9.31640625 39.52734375 C-6.72618069 38.14372643 -6.72618069 38.14372643 -5.81640625 35.90234375 C-8.45640625 35.90234375 -11.09640625 35.90234375 -13.81640625 35.90234375 C-14.06390625 35.03609375 -14.31140625 34.16984375 -14.56640625 33.27734375 C-15.8886952 29.70716358 -17.56095557 26.95811564 -19.81640625 23.90234375 C-20.14640625 23.90234375 -20.47640625 23.90234375 -20.81640625 23.90234375 C-20.81640625 27.86234375 -20.81640625 31.82234375 -20.81640625 35.90234375 C-23.12640625 35.90234375 -25.43640625 35.90234375 -27.81640625 35.90234375 C-27.81640625 26.33234375 -27.81640625 16.76234375 -27.81640625 6.90234375 C-24.01109375 7.05703125 -24.01109375 7.05703125 -20.12890625 7.21484375 C-18.94421753 7.25218628 -18.94421753 7.25218628 -17.7355957 7.2902832 C-13.38148025 7.51654967 -10.3078142 8.03965677 -6.81640625 10.90234375 C-5.86746535 14.38179373 -5.44445911 16.75550672 -6.56640625 20.21484375 C-7.81640625 21.90234375 -7.81640625 21.90234375 -10.81640625 23.90234375 C-9.36596354 28.01193142 -7.30529873 31.3349312 -4.81640625 34.90234375 C-1.24886247 32.4050631 -0.29152956 29.81303899 0.62109375 25.71484375 C1.66976188 18.69251252 0.14403678 13.22053415 -4.06640625 7.52734375 C-8.10872047 3.66877109 -11.73572588 2.16715762 -17.25390625 1.46484375 C-23.08158465 2.18052355 -27.74389514 4.36541957 -31.69140625 8.77734375 Z M-20.81640625 12.90234375 C-20.81640625 14.88234375 -20.81640625 16.86234375 -20.81640625 18.90234375 C-17.35140625 18.40734375 -17.35140625 18.40734375 -13.81640625 17.90234375 C-13.22570611 15.95631101 -13.22570611 15.95631101 -12.81640625 13.90234375 C-14.00064951 12.48656898 -14.00064951 12.48656898 -17.37890625 12.83984375 C-19.08046875 12.87078125 -19.08046875 12.87078125 -20.81640625 12.90234375 Z " fill="#1E6CA3" transform="translate(519.81640625,667.09765625)"/>
<path d="M0 0 C0.66 0.33 1.32 0.66 2 1 C-15.16 18.16 -32.32 35.32 -50 53 C-50.66 52.67 -51.32 52.34 -52 52 C-51.42556152 51.43079834 -50.85112305 50.86159668 -50.25927734 50.27514648 C-47.62849048 47.66529778 -45.00172405 45.05143749 -42.375 42.4375 C-41.47136719 41.54224609 -40.56773437 40.64699219 -39.63671875 39.72460938 C-34.05672553 34.17772024 -34.05672553 34.17772024 -28.8515625 28.28515625 C-26.22897993 25.13417733 -23.28406609 22.55963796 -20.16796875 19.90576172 C-16.08986776 16.32089051 -12.31753688 12.42045055 -8.5 8.5625 C-7.67757812 7.73556641 -6.85515625 6.90863281 -6.0078125 6.05664062 C-4.00287887 4.04005041 -2.00033747 2.02114764 0 0 Z " fill="#4F8CB7" transform="translate(252,205)"/>
<path d="M0 0 C0.66 0.33 1.32 0.66 2 1 C-2.29 5.29 -6.58 9.58 -11 14 C-11 9.40845608 -8.09282279 7.18698368 -5 4 C-3.3719908 2.61973133 -1.71956118 1.26438322 0 0 Z " fill="#5C95BC" transform="translate(283,352)"/>
<path d="M0 0 C0.66 0 1.32 0 2 0 C2 0.66 2 1.32 2 2 C3.98 2 5.96 2 8 2 C8.33 1.34 8.66 0.68 9 0 C9.66 0.99 10.32 1.98 11 3 C10.67 3.66 10.34 4.32 10 5 C8.51793505 4.745504 7.03931385 4.47088238 5.5625 4.1875 C4.73878906 4.03667969 3.91507812 3.88585937 3.06640625 3.73046875 C2.38449219 3.48941406 1.70257813 3.24835937 1 3 C0.67 2.01 0.34 1.02 0 0 Z " fill="#78A7C7" transform="translate(505,700)"/>
<path d="M0 0 C0.66 0.33 1.32 0.66 2 1 C-0.31 3.31 -2.62 5.62 -5 8 C-5.66 7.67 -6.32 7.34 -7 7 C-4.78071806 4.09197539 -3.07030857 2.04687238 0 0 Z " fill="#5691BA" transform="translate(362,4)"/>
</svg>
